<?xml version="1.0" encoding="UTF-8"?>
<svg width="108px" height="105px" viewBox="0 0 108 105" version="1.1" xmlns="http://www.w3.org/2000/svg" xmlns:xlink="http://www.w3.org/1999/xlink">
    <!-- Generator: Sketch 42 (36781) - http://www.bohemiancoding.com/sketch -->
    <title>clock and lock icon</title>
    <desc>Created with Sketch.</desc>
    <defs></defs>
    <g id="after-login" stroke="none" stroke-width="1" fill="none" fill-rule="evenodd">
        <g id="Desktop" transform="translate(-458.000000, -373.000000)" stroke-width="3" stroke="#39B54A">
            <g id="clock-and-lock-icon" transform="translate(459.000000, 375.000000)">
                <g id="clock-icon" stroke-linecap="round" stroke-linejoin="round">
                    <g id="Group-4" transform="translate(0.000000, 0.041619)">
                        <path d="M53.65815,87.7595673 C50.77665,88.3558763 47.79015,88.6690891 44.73315,88.6690891 C20.44215,88.6690891 0.75015,68.90205 0.75015,44.5151225 C0.75015,20.1297009 20.44215,0.361155991 44.73315,0.361155991 C64.09815,0.361155991 80.54115,12.9273128 86.41215,30.3783843" id="Stroke-3"></path>
                    </g>
                    <path d="M44.73285,47.2304942 L44.73285,21.6012564" id="Stroke-5"></path>
                    <path d="M44.73285,47.2304942 L55.79985,36.1204756" id="Stroke-7"></path>
                    <path d="M2.8353,44.5570424 L8.1303,44.5570424" id="Stroke-9"></path>
                    <path d="M44.73285,86.617302 L44.73285,81.3017198" id="Stroke-11"></path>
                    <path d="M44.73285,7.81266622 L44.73285,2.497084" id="Stroke-13"></path>
                </g>
                <g id="lock" transform="translate(63.000000, 39.000000)">
                    <path d="M31.9190043,62.4866611 L10.1825163,62.4866611 C4.55928038,62.4866611 -0.000336801387,57.9615105 -0.000336801387,52.3792878 L-0.000336801387,25.7766437 C-0.000336801387,23.8945073 1.53749833,22.3687398 3.43369014,22.3687398 L38.6685041,22.3687398 C40.5646959,22.3687398 42.1018574,23.8945073 42.1018574,25.7766437 L42.1018574,52.3792878 C42.1018574,57.9615105 37.5429138,62.4866611 31.9190043,62.4866611 Z" id="Stroke-3" fill="#FFFFFF"></path>
                    <path d="M20.6763045,53.836857 C20.941704,53.9672359 21.2529085,53.9672359 21.518308,53.836857 C22.0012812,53.5968261 33.3481199,47.9009398 33.3481199,40.581669 C33.3481199,37.4639418 31.7698686,35.0850284 29.0208957,34.0506891 C26.3567967,33.050449 23.1982733,33.5793193 21.1255976,35.2802624 C19.139143,33.6241161 15.9267314,33.0905655 13.214133,34.0647299 C10.3796125,35.0850284 8.75420902,37.4572557 8.75420902,40.5769887 C8.75420902,47.8574802 20.1839009,53.5908086 20.6749573,53.8321767" id="Stroke-1" stroke-linejoin="round"></path>
                    <path d="M36.3316413,22.3684055 L36.3316413,15.1674787 C36.3316413,6.79046733 29.4905315,6.68609734e-05 21.0509624,6.68609734e-05 C12.6120668,6.68609734e-05 5.77028345,6.79046733 5.77028345,15.1674787 L5.77028345,22.3684055 L36.3316413,22.3684055 Z" id="Stroke-5" fill="#FFFFFF"></path>
                    <path d="M29.4916767,22.3357774 L29.4916767,15.7626751 C29.4916767,11.1358957 25.7127651,7.3849951 21.0507603,7.3849951 C16.3894291,7.3849951 12.6098439,11.1358957 12.6098439,15.7626751 L12.6098439,22.3357774 L29.4916767,22.3357774 Z" id="Stroke-7" fill="#FFFFFF"></path>
                </g>
            </g>
        </g>
    </g>
</svg>