<svg xmlns="http://www.w3.org/2000/svg" viewBox="0 0 600.16 133.37">
  <defs>
    <style>
      .a {
      fill: #39b54a;
      }
      .g {
        fill:#706F6F
      }
    </style>
  </defs>
  <title>eg-logo-white</title>
  <path class="a" d="M33,14.86a42.09,42.09,0,0,1,14.33-2.44c8.85,0,17.47,2.65,23.68,7.4C53.26,37.24,45.63,53.76,48.36,69c4,22.11,28.25,32,29.28,32.41l2.46,1,2.39-1.12c17.37-8.15,27.08-19.17,28.87-32.74,2.69-20.33-13.87-39.94-22.54-48.65,10-7.62,25.23-9.92,37.78-5.17,7.49,2.84,20.07,10.64,20.07,31.08S128.14,85.45,112.6,98A228.09,228.09,0,0,1,79.73,119.7,231.75,231.75,0,0,1,46.73,98C31,85.41,12.23,66.17,12.23,45.79s13-28.1,20.76-30.91M83.48,77.24l10.78-8.71a3.61,3.61,0,0,0-4.54-5.6l-6.18,5V62.5l6.28-5a3.63,3.63,0,0,0-4.56-5.64l-1.79,1.42V43.44a3.61,3.61,0,1,0-7.21,0v9.49L75.19,52a3.6,3.6,0,1,0-4.74,5.43l5.81,5.06V68l-6-4.77a3.61,3.61,0,1,0-4.66,5.52l.17.13,10.49,8.37v9.68c-5.84-3.61-14.17-10.36-15.92-20.11-2-11,4.77-24.26,19.52-38.64C87,35.35,101.26,51.7,99.23,66.94c-1,7.64-6.32,14.34-15.77,20V77.26ZM77,132a6.13,6.13,0,0,0,5.44,0c3.12-1.56,76.41-38.63,76.41-86.26,0-20.29-10.19-35.77-28-42.5-17.21-6.51-37.61-3.07-51,8C67.08.5,46.33-3,28.81,3.37,10.5,10,0,25.45,0,45.75,0,93.13,73.83,130.44,77,132"/>
  <path class="a" d="M422.88,86.11h-3.72a1.52,1.52,0,0,0-1.46,1.46V131.2a1.48,1.48,0,0,0,1.46,1.46h3.72a1.52,1.52,0,0,0,1.46-1.46V87.57a1.57,1.57,0,0,0-1.46-1.46"/>
  <path class="a" d="M437.21,101.94h-3.72A1.52,1.52,0,0,0,432,103.4v27.8a1.48,1.48,0,0,0,1.46,1.46h3.72a1.52,1.52,0,0,0,1.46-1.46V103.4a1.57,1.57,0,0,0-1.46-1.46"/>
  <path class="a" d="M435.34,95.36a4.5,4.5,0,0,0,0-9h0a4.5,4.5,0,0,0,0,9"/>
  <path class="a" d="M470.33,88.51a13.57,13.57,0,0,0-8.71-3.06c-7.45,0-11.37,4.72-11.37,13V102h-4a1.4,1.4,0,0,0-1.46,1.34s0,.08,0,.12v3.26a1.47,1.47,0,0,0,1.46,1.46h4v23.08a1.52,1.52,0,0,0,1.46,1.46h3.73a1.52,1.52,0,0,0,1.46-1.46V108.12h8.71a1.52,1.52,0,0,0,1.46-1.46V103.4a1.43,1.43,0,0,0-1.4-1.46H456.9V98.41c0-3.86,1.4-6.65,4.86-6.65a8.17,8.17,0,0,1,4.92,1.53,1.28,1.28,0,0,0,2-.27l1.93-2.79a1.35,1.35,0,0,0-.27-1.73"/>
  <path class="a" d="M475,113.91c.46-3.86,3.39-7,8.25-7a7.26,7.26,0,0,1,7.58,6.93v.07Zm8.38-12.64c-9.24,0-15.29,7.38-15.29,16s6,16.09,15.36,16.09a17.61,17.61,0,0,0,11.37-3.79,1.25,1.25,0,0,0,.13-2.06l-1.79-2.79c-.53-.8-1.13-.6-1.8-.13a11.91,11.91,0,0,1-7.51,2.59,9,9,0,0,1-9.18-8.38h21.22a1.44,1.44,0,0,0,1.4-1.33c.07-.53.13-1.6.13-2.13a13.68,13.68,0,0,0-13.25-14.1h-.75"/>
  <path class="g" d="M216.43,42.52H186.11A16.13,16.13,0,0,1,202,28.76a14.42,14.42,0,0,1,14.41,13.76M202,20.76c-16.3,0-24.83,13.43-24.83,26.69,0,15.78,10.21,26.8,24.83,26.8,8.27,0,15.08-3,18.68-5.86,2-1.5,1.6-2.25.6-3.81l-1.4-2a2.93,2.93,0,0,0-1.71-1.48c-.81-.16-1.63.41-2.57,1.06a23.12,23.12,0,0,1-13.49,4.1c-7.35,0-15.72-6.8-16.16-16.61h36.39A2.69,2.69,0,0,0,225,47.17a28.59,28.59,0,0,0,.22-3.1c0-13.5-9.75-23.3-23.19-23.3"/>
  <path class="g" d="M275.07,22.86a2.46,2.46,0,0,0-2.23-1h-3.5a2.44,2.44,0,0,0-2.27,1.62L250.65,60.2,235.21,23.5a2.57,2.57,0,0,0-2.61-1.64h-3.83a2.46,2.46,0,0,0-2.21,1,2.33,2.33,0,0,0,0,2.3l21.31,47.53a2.46,2.46,0,0,0,2.39,1.54h.66a2.36,2.36,0,0,0,2.38-1.51l21.76-47.57a2.43,2.43,0,0,0,0-2.34"/>
  <path class="g" d="M314.33,42.52H284a16.13,16.13,0,0,1,15.91-13.76,14.42,14.42,0,0,1,14.41,13.76M299.92,20.76c-16.3,0-24.83,13.43-24.83,26.69,0,15.78,10.21,26.8,24.83,26.8,8.27,0,15.08-3,18.68-5.86,2-1.5,1.6-2.25.6-3.81l-1.4-2a2.93,2.93,0,0,0-1.71-1.48c-.81-.16-1.63.41-2.57,1.06A23.12,23.12,0,0,1,300,66.26c-7.35,0-15.72-6.8-16.16-16.61h36.39a2.69,2.69,0,0,0,2.63-2.48,28.59,28.59,0,0,0,.22-3.1c0-13.5-9.75-23.3-23.19-23.3"/>
  <path class="g" d="M362.55,23c-1.33-1.86-5.59-2.25-8.93-2.25a21.11,21.11,0,0,0-15.36,6.1l-.73-3a2.52,2.52,0,0,0-2.51-2h-1.76a2.85,2.85,0,0,0-2.74,2.74V70.31a2.78,2.78,0,0,0,2.74,2.74h3.28a2.85,2.85,0,0,0,2.74-2.74V35.41c.48-.71,4.46-6.21,13.33-6.21a12.26,12.26,0,0,1,5.24,1.35h.09a2.62,2.62,0,0,0,2.15.16,2.4,2.4,0,0,0,1.26-1.56l1.42-3.94a2.36,2.36,0,0,0-.25-2.24"/>
  <path class="g" d="M387.43,66.14c-9.41,0-16.5-8.08-16.5-18.8,0-9,5.59-18.47,16-18.47,7.4,0,12.33,5.17,13,5.92V62.15a24.32,24.32,0,0,1-12.46,4M405.8,21.86h-1.54c-1.51,0-2.14.91-2.72,2l-.62,1.84A25.82,25.82,0,0,0,386,20.78c-13.65,0-24,11.47-24,26.69s10.44,26.8,24.28,26.8a25.27,25.27,0,0,0,13.66-4.17v3c0,13.1-7.49,15.85-13.77,15.85-4.16,0-8.24-1.73-12.46-5.27a2.87,2.87,0,0,0-2.26-.88,2.14,2.14,0,0,0-1.52,1L367.75,87a2.74,2.74,0,0,0,.59,3.39A29,29,0,0,0,386.26,97c14,0,22.42-9,22.42-24V24.6a2.94,2.94,0,0,0-2.85-2.74"/>
  <path class="g" d="M449.64,23c-1.33-1.86-5.59-2.25-8.93-2.25a21.11,21.11,0,0,0-15.35,6.1l-.73-3a2.52,2.52,0,0,0-2.51-2h-1.75a2.85,2.85,0,0,0-2.74,2.74V70.31a2.78,2.78,0,0,0,2.74,2.74h3.28a2.85,2.85,0,0,0,2.74-2.74V35.41c.48-.71,4.46-6.21,13.33-6.21A12.26,12.26,0,0,1,445,30.55h.09a2.62,2.62,0,0,0,2.15.16,2.41,2.41,0,0,0,1.26-1.56l1.42-3.94a2.35,2.35,0,0,0-.25-2.24"/>
  <path class="g" d="M488.76,42.52H458.44a16.13,16.13,0,0,1,15.91-13.76,14.42,14.42,0,0,1,14.41,13.76M474.35,20.76c-16.3,0-24.83,13.43-24.83,26.69,0,15.78,10.21,26.8,24.83,26.8,8.27,0,15.08-3,18.68-5.86,2-1.5,1.6-2.25.6-3.81l-1.4-2a2.93,2.93,0,0,0-1.71-1.48c-.81-.16-1.63.41-2.57,1.06a23.12,23.12,0,0,1-13.49,4.1c-7.35,0-15.72-6.8-16.16-16.61h36.39a2.69,2.69,0,0,0,2.63-2.48,28.6,28.6,0,0,0,.22-3.1c0-13.5-9.75-23.3-23.19-23.3"/>
  <path class="g" d="M542,42.52H511.67a16.13,16.13,0,0,1,15.91-13.76A14.42,14.42,0,0,1,542,42.52M527.58,20.76c-16.3,0-24.83,13.43-24.83,26.69,0,15.78,10.21,26.8,24.83,26.8,8.27,0,15.08-3,18.68-5.86,2-1.5,1.6-2.25.6-3.81l-1.4-2a2.93,2.93,0,0,0-1.71-1.48c-.81-.16-1.63.41-2.57,1.06a23.12,23.12,0,0,1-13.49,4.1c-7.35,0-15.72-6.8-16.16-16.61h36.39a2.69,2.69,0,0,0,2.63-2.48,28.6,28.6,0,0,0,.22-3.1c0-13.5-9.75-23.3-23.19-23.3"/>
  <path class="g" d="M581.57,20.76a26.29,26.29,0,0,0-16.77,6.17l-.94-3.28a2.06,2.06,0,0,0-2.29-1.8h-1.76a2.85,2.85,0,0,0-2.74,2.74V70.3A2.78,2.78,0,0,0,559.81,73h3.28a2.85,2.85,0,0,0,2.74-2.74V35.55c.74-.81,6.53-6.79,15.19-6.79,7.18,0,10.38,4.25,10.38,13.77V70.3A2.78,2.78,0,0,0,594.14,73h3.28a2.85,2.85,0,0,0,2.74-2.74V43.62c0-10.64-2.11-22.86-18.6-22.86"/>
</svg>
